<svg width="1500" height="400" viewBox="0 0 1500 400" fill="none" xmlns="http://www.w3.org/2000/svg">
  <style media="(prefers-color-scheme: light)">
    #dark {
      display: none;
    }

    #light {
      display: initial;
    }
  </style>
  <style media="(prefers-color-scheme: dark)">
    #dark {
      display: initial;
    }

    #light {
      display: none;
    }
  </style>
  <g id="light">
    <g clip-path="url(#clip0)">
      <rect width="1500" height="400" fill="white" />
      <path d="M-62.445 355.737C-52.6005 366.8 -38.5096 371.751 -21.5625 371.751C-2.99692 371.751 19.0533 365.677 42.665 355.375C64.831 365.516 88.915 370.782 113.291 370.818C144.259 370.785 174.637 362.348 201.187 346.407C220.525 334.951 237.396 319.77 250.821 301.743C264.246 283.715 273.957 263.202 279.391 241.392C287.137 210.565 286.062 178.181 276.287 147.935C301.232 105.358 309.667 66.7607 289.083 43.587C276.497 29.42 258.997 22.8126 240.051 24.8691C224.227 26.5828 207.947 34.4089 191.533 47.5477C165.731 34.1804 136.931 27.6549 107.887 28.595C78.8429 29.5352 50.5255 37.9095 25.6418 52.9174C6.29752 64.3706 -10.5798 79.551 -24.011 97.5781C-37.4423 115.605 -47.16 136.12 -52.6005 157.932C-61.0798 191.531 -59.046 226.923 -46.7737 259.329C-67.0531 282.255 -85.8853 329.345 -62.445 355.737V355.737ZM-33.9587 330.45C-38.0907 325.804 -33.9016 310.075 -26.78 296.936C-18.3281 309.223 -8.31021 320.354 3.02025 330.05C-16.4784 335.8 -29.5791 335.439 -33.9587 330.45ZM242.469 232.1C238.239 249.049 230.685 264.99 220.244 278.997C209.804 293.004 196.685 304.797 181.65 313.693C161.002 326.096 137.378 332.67 113.291 332.716C105.255 332.716 97.4288 331.764 89.736 330.393C119.515 311.98 147.632 291.005 173.767 267.707C200.635 243.848 225.598 217.704 246.182 191.617C247.04 205.222 245.788 218.878 242.469 232.1ZM244.202 62.6858C250.981 62.0574 256.236 63.9045 260.597 68.8363C264.996 73.8061 263.815 86.8497 255.798 105.568C247.187 92.4613 236.828 80.5905 225.008 70.2834C233.215 65.2945 239.784 63.1809 244.202 62.6858V62.6858ZM-15.6596 167.225C-11.4267 150.271 -3.86915 134.327 6.57448 120.317C17.0181 106.307 30.1399 94.5106 45.1785 85.612C65.8199 73.2091 89.438 66.635 113.519 66.5894C160.609 66.5894 203.186 90.8294 227.445 131.426C229.921 135.577 232.111 139.805 234.129 144.127C215.639 171.566 187.801 204.299 148.48 239.221C109.197 274.124 73.4173 297.907 43.9789 313.027C25.6784 301.802 10.3701 286.311 -0.635755 267.879C-9.67513 252.93 -15.6577 236.336 -18.2366 219.058C-20.8156 201.78 -19.9396 184.162 -15.6596 167.225Z" fill="#D1D5DA" />
      <path d="M390.844 143H397.764V132.389H403.581C411.107 132.389 415.486 127.899 415.486 121.363C415.486 114.859 411.187 110.273 403.756 110.273H390.844V143ZM397.764 126.844V115.93H402.43C406.425 115.93 408.359 118.103 408.359 121.363C408.359 124.607 406.425 126.844 402.462 126.844H397.764ZM430.643 143.479C436.715 143.479 440.806 140.523 441.765 135.969L435.469 135.553C434.782 137.423 433.024 138.398 430.755 138.398C427.351 138.398 425.194 136.145 425.194 132.485V132.469H441.909V130.599C441.909 122.258 436.859 118.135 430.371 118.135C423.148 118.135 418.466 123.265 418.466 130.839C418.466 138.621 423.084 143.479 430.643 143.479ZM425.194 128.25C425.338 125.454 427.463 123.217 430.483 123.217C433.439 123.217 435.485 125.326 435.501 128.25H425.194ZM455.396 143.4C459.359 143.4 461.421 141.114 462.363 139.069H462.651V143H469.363V110.273H462.571V122.577H462.363C461.453 120.58 459.487 118.135 455.38 118.135C449.995 118.135 445.441 122.322 445.441 130.759C445.441 138.973 449.803 143.4 455.396 143.4ZM457.553 137.982C454.214 137.982 452.392 135.01 452.392 130.727C452.392 126.477 454.182 123.552 457.553 123.552C460.861 123.552 462.715 126.349 462.715 130.727C462.715 135.106 460.829 137.982 457.553 137.982ZM474.96 143H481.767V129.113C481.767 126.093 483.973 124.016 486.977 124.016C487.92 124.016 489.214 124.175 489.853 124.383V118.343C489.246 118.199 488.399 118.103 487.712 118.103C484.963 118.103 482.71 119.701 481.815 122.737H481.56V118.455H474.96V143ZM503.32 143.479C510.767 143.479 515.401 138.382 515.401 130.823C515.401 123.217 510.767 118.135 503.32 118.135C495.874 118.135 491.24 123.217 491.24 130.823C491.24 138.382 495.874 143.479 503.32 143.479ZM503.352 138.206C499.917 138.206 498.159 135.058 498.159 130.775C498.159 126.493 499.917 123.328 503.352 123.328C506.724 123.328 508.482 126.493 508.482 130.775C508.482 135.058 506.724 138.206 503.352 138.206ZM530.371 143H537.29V129.481H551.337V143H558.24V110.273H551.337V123.776H537.29V110.273H530.371V143ZM575.003 143.479C581.076 143.479 585.167 140.523 586.125 135.969L579.829 135.553C579.142 137.423 577.384 138.398 575.115 138.398C571.711 138.398 569.554 136.145 569.554 132.485V132.469H586.269V130.599C586.269 122.258 581.22 118.135 574.732 118.135C567.509 118.135 562.826 123.265 562.826 130.839C562.826 138.621 567.445 143.479 575.003 143.479ZM569.554 128.25C569.698 125.454 571.823 123.217 574.843 123.217C577.8 123.217 579.845 125.326 579.861 128.25H569.554ZM597.519 128.81C597.535 125.646 599.421 123.792 602.169 123.792C604.902 123.792 606.548 125.582 606.532 128.586V143H613.34V127.371C613.34 121.651 609.984 118.135 604.87 118.135C601.227 118.135 598.59 119.925 597.487 122.785H597.2V118.455H590.712V143H597.519V128.81ZM618.705 143H625.512V129.113C625.512 126.093 627.718 124.016 630.722 124.016C631.665 124.016 632.959 124.175 633.598 124.383V118.343C632.991 118.199 632.144 118.103 631.457 118.103C628.708 118.103 626.455 119.701 625.56 122.737H625.305V118.455H618.705V143ZM637.118 143H643.926V118.455H637.118V143ZM640.538 115.29C642.567 115.29 644.229 113.74 644.229 111.839C644.229 109.953 642.567 108.403 640.538 108.403C638.524 108.403 636.862 109.953 636.862 111.839C636.862 113.74 638.524 115.29 640.538 115.29ZM672.406 152.205V118.455H665.694V122.577H665.391C664.48 120.58 662.514 118.135 658.407 118.135C653.022 118.135 648.468 122.322 648.468 130.759C648.468 138.973 652.83 143.4 658.423 143.4C662.387 143.4 664.448 141.114 665.391 139.069H665.599V152.205H672.406ZM665.742 130.727C665.742 135.106 663.857 137.982 660.581 137.982C657.241 137.982 655.419 135.01 655.419 130.727C655.419 126.477 657.209 123.552 660.581 123.552C663.889 123.552 665.742 126.349 665.742 130.727ZM693.596 132.549C693.612 135.841 691.358 137.567 688.914 137.567C686.341 137.567 684.679 135.761 684.663 132.869V118.455H677.855V134.083C677.871 139.82 681.227 143.32 686.165 143.32C689.856 143.32 692.509 141.418 693.612 138.542H693.867V143H700.403V118.455H693.596V132.549ZM717.035 143.479C723.107 143.479 727.198 140.523 728.157 135.969L721.861 135.553C721.173 137.423 719.416 138.398 717.146 138.398C713.743 138.398 711.585 136.145 711.585 132.485V132.469H728.301V130.599C728.301 122.258 723.251 118.135 716.763 118.135C709.54 118.135 704.858 123.265 704.858 130.839C704.858 138.621 709.476 143.479 717.035 143.479ZM711.585 128.25C711.729 125.454 713.854 123.217 716.875 123.217C719.831 123.217 721.877 125.326 721.892 128.25H711.585ZM743.286 143H764.236V137.295H750.205V110.273H743.286V143ZM779.876 143.479C785.949 143.479 790.04 140.523 790.998 135.969L784.702 135.553C784.015 137.423 782.257 138.398 779.988 138.398C776.584 138.398 774.427 136.145 774.427 132.485V132.469H791.142V130.599C791.142 122.258 786.093 118.135 779.605 118.135C772.382 118.135 767.699 123.265 767.699 130.839C767.699 138.621 772.318 143.479 779.876 143.479ZM774.427 128.25C774.571 125.454 776.696 123.217 779.717 123.217C782.673 123.217 784.718 125.326 784.734 128.25H774.427ZM795.585 143H802.392V128.266C802.392 125.55 804.118 123.744 806.387 123.744C808.625 123.744 810.127 125.278 810.127 127.691V143H816.726V128.011C816.726 125.47 818.181 123.744 820.658 123.744C822.831 123.744 824.461 125.102 824.461 127.835V143H831.252V126.493C831.252 121.171 828.088 118.135 823.518 118.135C819.922 118.135 817.126 119.973 816.119 122.785H815.864C815.081 119.941 812.572 118.135 809.2 118.135C805.892 118.135 803.383 119.893 802.36 122.785H802.073V118.455H795.585V143ZM847.816 143.479C853.888 143.479 857.979 140.523 858.938 135.969L852.642 135.553C851.955 137.423 850.197 138.398 847.928 138.398C844.524 138.398 842.367 136.145 842.367 132.485V132.469H859.082V130.599C859.082 122.258 854.032 118.135 847.544 118.135C840.321 118.135 835.639 123.265 835.639 130.839C835.639 138.621 840.257 143.479 847.816 143.479ZM842.367 128.25C842.51 125.454 844.636 123.217 847.656 123.217C850.612 123.217 852.658 125.326 852.674 128.25H842.367ZM883.947 125.454C883.34 120.931 879.696 118.135 873.496 118.135C867.216 118.135 863.077 121.043 863.093 125.773C863.077 129.449 865.394 131.83 870.188 132.789L874.439 133.636C876.58 134.067 877.555 134.85 877.587 136.081C877.555 137.535 875.973 138.574 873.592 138.574C871.163 138.574 869.549 137.535 869.133 135.537L862.438 135.889C863.077 140.587 867.072 143.479 873.576 143.479C879.936 143.479 884.49 140.235 884.506 135.393C884.49 131.846 882.173 129.721 877.411 128.746L872.968 127.851C870.683 127.355 869.836 126.572 869.852 125.39C869.836 123.92 871.498 122.961 873.608 122.961C875.973 122.961 877.379 124.255 877.715 125.837L883.947 125.454Z" fill="#6A737D" />
      <path d="M428 231V256H478V206H428V231Z" fill="#6A737D" />
      <path d="M439.057 231.166L439.041 233.214H445.549V251.706H450.152V233.214H456.66V231.206C456.66 230.094 456.636 229.166 456.605 229.142C456.581 229.11 452.621 229.094 447.819 229.102L439.081 229.126L439.057 231.166L439.057 231.166Z" fill="white" />
      <path d="M468.345 229.068C469.615 229.386 470.583 229.949 471.472 230.87C471.933 231.362 472.615 232.259 472.671 232.473C472.686 232.536 470.512 233.997 469.195 234.814C469.147 234.846 468.956 234.639 468.742 234.322C468.099 233.386 467.425 232.981 466.393 232.909C464.877 232.806 463.901 233.6 463.909 234.925C463.909 235.314 463.964 235.544 464.123 235.862C464.456 236.552 465.075 236.965 467.02 237.806C470.599 239.346 472.131 240.362 473.083 241.806C474.147 243.417 474.385 245.989 473.663 247.901C472.869 249.981 470.901 251.394 468.131 251.862C467.274 252.012 465.242 251.989 464.322 251.822C462.314 251.465 460.409 250.473 459.234 249.171C458.774 248.663 457.877 247.338 457.933 247.243C457.956 247.211 458.163 247.084 458.393 246.949C458.615 246.822 459.456 246.338 460.25 245.878L461.687 245.044L461.988 245.489C462.409 246.131 463.329 247.012 463.885 247.306C465.48 248.147 467.671 248.028 468.75 247.06C469.21 246.639 469.401 246.203 469.401 245.56C469.401 244.981 469.329 244.727 469.028 244.29C468.639 243.735 467.845 243.266 465.591 242.29C463.012 241.179 461.901 240.489 460.885 239.393C460.298 238.759 459.742 237.743 459.512 236.893C459.322 236.187 459.274 234.417 459.425 233.703C459.956 231.211 461.837 229.473 464.552 228.957C465.432 228.79 467.48 228.854 468.345 229.068V229.068Z" fill="white" />
      <path d="M389.101 279.18H394.765V295H397.499V279.18H403.172V276.818H389.101V279.18ZM406.184 300.114C408.377 300.114 409.762 298.968 410.552 296.82L416.189 281.39L413.322 281.364L409.868 291.946H409.726L406.273 281.364H403.432L408.421 295.178L408.093 296.083C407.418 297.894 406.468 298.045 405.012 297.646L404.373 299.821C404.693 299.963 405.385 300.114 406.184 300.114ZM418.691 300.114H421.345V292.878H421.505C421.984 293.748 422.961 295.266 425.447 295.266C428.749 295.266 431.146 292.621 431.146 288.208C431.146 283.787 428.714 281.186 425.42 281.186C422.89 281.186 421.975 282.731 421.505 283.574H421.283V281.364H418.691V300.114ZM421.292 288.182C421.292 285.332 422.535 283.441 424.852 283.441C427.258 283.441 428.465 285.474 428.465 288.182C428.465 290.916 427.222 293.002 424.852 293.002C422.57 293.002 421.292 291.049 421.292 288.182ZM439.998 295.275C442.972 295.275 445.076 293.81 445.679 291.591L443.167 291.138C442.688 292.425 441.533 293.082 440.024 293.082C437.751 293.082 436.224 291.609 436.153 288.981H445.848V288.04C445.848 283.113 442.901 281.186 439.811 281.186C436.011 281.186 433.508 284.08 433.508 288.271C433.508 292.505 435.976 295.275 439.998 295.275ZM436.162 286.992C436.269 285.057 437.672 283.379 439.829 283.379C441.888 283.379 443.238 284.906 443.247 286.992H436.162ZM458.923 281.594H461.568C461.489 278.683 458.914 276.57 455.221 276.57C451.572 276.57 448.775 278.656 448.775 281.79C448.775 284.32 450.587 285.803 453.507 286.593L455.656 287.179C457.6 287.694 459.1 288.333 459.1 289.949C459.1 291.724 457.405 292.896 455.07 292.896C452.957 292.896 451.199 291.955 451.039 289.975H448.287C448.465 293.269 451.013 295.302 455.088 295.302C459.358 295.302 461.817 293.056 461.817 289.975C461.817 286.699 458.896 285.43 456.588 284.862L454.812 284.4C453.392 284.036 451.501 283.37 451.51 281.63C451.51 280.085 452.921 278.94 455.159 278.94C457.245 278.94 458.728 279.917 458.923 281.594ZM470.626 295.275C473.849 295.275 475.935 293.34 476.228 290.685H473.645C473.307 292.159 472.162 293.029 470.644 293.029C468.398 293.029 466.951 291.156 466.951 288.182C466.951 285.261 468.424 283.423 470.644 283.423C472.331 283.423 473.36 284.489 473.645 285.767H476.228C475.944 283.015 473.698 281.186 470.599 281.186C466.755 281.186 464.27 284.08 464.27 288.244C464.27 292.354 466.667 295.275 470.626 295.275ZM479.067 295H481.721V286.673C481.721 284.888 483.097 283.601 484.979 283.601C485.53 283.601 486.151 283.699 486.364 283.761V281.222C486.098 281.186 485.574 281.159 485.237 281.159C483.639 281.159 482.272 282.065 481.774 283.53H481.632V281.364H479.067V295ZM488.661 295H491.316V281.364H488.661V295ZM490.002 279.26C490.916 279.26 491.68 278.549 491.68 277.679C491.68 276.809 490.916 276.09 490.002 276.09C489.079 276.09 488.324 276.809 488.324 277.679C488.324 278.549 489.079 279.26 490.002 279.26ZM494.887 300.114H497.541V292.878H497.701C498.181 293.748 499.157 295.266 501.643 295.266C504.946 295.266 507.343 292.621 507.343 288.208C507.343 283.787 504.91 281.186 501.616 281.186C499.086 281.186 498.172 282.731 497.701 283.574H497.479V281.364H494.887V300.114ZM497.488 288.182C497.488 285.332 498.731 283.441 501.048 283.441C503.454 283.441 504.661 285.474 504.661 288.182C504.661 290.916 503.419 293.002 501.048 293.002C498.767 293.002 497.488 291.049 497.488 288.182ZM516.682 281.364H513.886V278.097H511.231V281.364H509.234V283.494H511.231V291.547C511.222 294.023 513.113 295.222 515.208 295.178C516.052 295.169 516.62 295.009 516.931 294.893L516.451 292.701C516.274 292.736 515.945 292.816 515.519 292.816C514.658 292.816 513.886 292.532 513.886 290.996V283.494H516.682V281.364Z" fill="#6A737D" />
      <g clip-path="url(#clip1)">
        <path d="M576.5 206H626.5V256H576.5V206Z" fill="#6A737D" />
        <path d="M589.647 247.784L593.473 245.468C594.211 246.777 594.883 247.884 596.493 247.884C598.037 247.884 599.011 247.28 599.011 244.931V228.955H603.71V244.997C603.71 249.864 600.857 252.079 596.695 252.079C592.936 252.079 590.754 250.133 589.646 247.783" fill="white" />
        <path d="M606.262 247.28L610.088 245.065C611.095 246.71 612.404 247.918 614.72 247.918C616.667 247.918 617.908 246.945 617.908 245.602C617.908 243.991 616.633 243.42 614.485 242.481L613.31 241.977C609.92 240.534 607.671 238.722 607.671 234.896C607.671 231.371 610.356 228.686 614.552 228.686C617.539 228.686 619.687 229.727 621.231 232.445L617.572 234.795C616.767 233.352 615.894 232.781 614.552 232.781C613.176 232.781 612.303 233.654 612.303 234.795C612.303 236.205 613.176 236.775 615.189 237.648L616.364 238.151C620.358 239.863 622.607 241.608 622.607 245.535C622.607 249.764 619.284 252.08 614.82 252.08C610.457 252.08 607.638 249.999 606.262 247.28" fill="white" />
      </g>
      <path d="M547.393 276.818V289.709C547.384 291.804 546.407 292.923 544.667 292.923C543.061 292.923 541.942 291.964 541.933 290.455H539.208C539.208 293.526 541.516 295.249 544.596 295.249C547.934 295.249 550.118 293.207 550.127 289.709V276.818H547.393ZM557.875 295.302C560.13 295.302 561.4 294.157 561.906 293.136H562.012V295H564.605V285.945C564.605 281.976 561.48 281.186 559.314 281.186C556.846 281.186 554.573 282.18 553.685 284.666L556.18 285.234C556.57 284.267 557.565 283.335 559.349 283.335C561.063 283.335 561.941 284.231 561.941 285.776V285.838C561.941 286.806 560.947 286.788 558.497 287.072C555.913 287.374 553.268 288.049 553.268 291.147C553.268 293.828 555.283 295.302 557.875 295.302ZM558.452 293.171C556.952 293.171 555.869 292.496 555.869 291.183C555.869 289.762 557.13 289.256 558.666 289.052C559.527 288.936 561.569 288.706 561.95 288.324V290.082C561.95 291.697 560.663 293.171 558.452 293.171ZM579.318 281.364H576.468L573.023 291.857H572.881L569.428 281.364H566.578L571.532 295H574.373L579.318 281.364ZM585.366 295.302C587.621 295.302 588.89 294.157 589.396 293.136H589.503V295H592.095V285.945C592.095 281.976 588.97 281.186 586.804 281.186C584.336 281.186 582.063 282.18 581.175 284.666L583.67 285.234C584.061 284.267 585.055 283.335 586.839 283.335C588.553 283.335 589.432 284.231 589.432 285.776V285.838C589.432 286.806 588.437 286.788 585.987 287.072C583.404 287.374 580.758 288.049 580.758 291.147C580.758 293.828 582.773 295.302 585.366 295.302ZM585.943 293.171C584.442 293.171 583.359 292.496 583.359 291.183C583.359 289.762 584.62 289.256 586.156 289.052C587.017 288.936 589.059 288.706 589.441 288.324V290.082C589.441 291.697 588.153 293.171 585.943 293.171ZM605.76 281.594H608.406C608.326 278.683 605.751 276.57 602.058 276.57C598.409 276.57 595.613 278.656 595.613 281.79C595.613 284.32 597.424 285.803 600.345 286.593L602.493 287.179C604.437 287.694 605.938 288.333 605.938 289.949C605.938 291.724 604.242 292.896 601.907 292.896C599.794 292.896 598.037 291.955 597.877 289.975H595.125C595.302 293.269 597.85 295.302 601.925 295.302C606.195 295.302 608.654 293.056 608.654 289.975C608.654 286.699 605.734 285.43 603.425 284.862L601.65 284.4C600.229 284.036 598.338 283.37 598.347 281.63C598.347 280.085 599.759 278.94 601.996 278.94C604.082 278.94 605.565 279.917 605.76 281.594ZM617.463 295.275C620.686 295.275 622.772 293.34 623.065 290.685H620.482C620.145 292.159 618.999 293.029 617.481 293.029C615.235 293.029 613.788 291.156 613.788 288.182C613.788 285.261 615.262 283.423 617.481 283.423C619.168 283.423 620.198 284.489 620.482 285.767H623.065C622.781 283.015 620.535 281.186 617.437 281.186C613.593 281.186 611.107 284.08 611.107 288.244C611.107 292.354 613.504 295.275 617.463 295.275ZM625.904 295H628.559V286.673C628.559 284.888 629.935 283.601 631.817 283.601C632.367 283.601 632.989 283.699 633.202 283.761V281.222C632.935 281.186 632.412 281.159 632.074 281.159C630.476 281.159 629.109 282.065 628.612 283.53H628.47V281.364H625.904V295ZM635.499 295H638.153V281.364H635.499V295ZM636.839 279.26C637.754 279.26 638.517 278.549 638.517 277.679C638.517 276.809 637.754 276.09 636.839 276.09C635.916 276.09 635.161 276.809 635.161 277.679C635.161 278.549 635.916 279.26 636.839 279.26ZM641.724 300.114H644.379V292.878H644.539C645.018 293.748 645.995 295.266 648.48 295.266C651.783 295.266 654.18 292.621 654.18 288.208C654.18 283.787 651.747 281.186 648.454 281.186C645.924 281.186 645.009 282.731 644.539 283.574H644.317V281.364H641.724V300.114ZM644.326 288.182C644.326 285.332 645.568 283.441 647.886 283.441C650.292 283.441 651.499 285.474 651.499 288.182C651.499 290.916 650.256 293.002 647.886 293.002C645.604 293.002 644.326 291.049 644.326 288.182ZM663.519 281.364H660.723V278.097H658.068V281.364H656.071V283.494H658.068V291.547C658.06 294.023 659.951 295.222 662.046 295.178C662.889 295.169 663.457 295.009 663.768 294.893L663.289 292.701C663.111 292.736 662.783 292.816 662.356 292.816C661.495 292.816 660.723 292.532 660.723 290.996V283.494H663.519V281.364Z" fill="#6A737D" />
      <g clip-path="url(#clip2)">
        <path d="M732 255.907C731.313 255.907 730.671 255.724 730.075 255.403L723.977 251.781C723.06 251.277 723.518 251.093 723.793 251.001C725.031 250.589 725.26 250.497 726.544 249.763C726.682 249.672 726.865 249.718 727.003 249.809L731.679 252.606C731.863 252.698 732.092 252.698 732.23 252.606L750.524 242.015C750.707 241.923 750.799 241.74 750.799 241.511V220.374C750.799 220.144 750.707 219.961 750.524 219.869L732.23 209.324C732.046 209.232 731.817 209.232 731.679 209.324L713.385 219.87C713.202 219.961 713.11 220.191 713.11 220.374V241.511C713.11 241.694 713.202 241.923 713.385 242.015L718.383 244.903C721.088 246.279 722.784 244.674 722.784 243.069V222.208C722.784 221.933 723.014 221.657 723.335 221.657H725.673C725.948 221.657 726.223 221.887 726.223 222.208V243.069C726.223 246.691 724.252 248.8 720.813 248.8C719.758 248.8 718.933 248.8 716.595 247.654L711.781 244.903C710.589 244.215 709.855 242.932 709.855 241.556V220.42C709.855 219.044 710.589 217.761 711.781 217.073L730.075 206.482C731.221 205.84 732.78 205.84 733.926 206.482L752.22 217.073C753.412 217.76 754.146 219.044 754.146 220.42V241.556C754.146 242.932 753.412 244.216 752.22 244.903L733.926 255.495C733.33 255.77 732.642 255.907 732 255.907V255.907ZM737.64 241.373C729.616 241.373 727.966 237.705 727.966 234.587C727.966 234.312 728.195 234.037 728.516 234.037H730.9C731.175 234.037 731.404 234.22 731.404 234.496C731.771 236.925 732.826 238.118 737.686 238.118C741.537 238.118 743.188 237.247 743.188 235.183C743.188 233.991 742.729 233.12 736.723 232.524C731.725 232.02 728.607 230.919 728.607 226.93C728.607 223.216 731.725 221.016 736.952 221.016C742.821 221.016 745.709 223.033 746.076 227.435C746.076 227.572 746.03 227.71 745.939 227.847C745.847 227.939 745.709 228.031 745.572 228.031H743.188C742.958 228.031 742.729 227.847 742.683 227.618C742.133 225.096 740.712 224.271 736.952 224.271C732.734 224.271 732.23 225.738 732.23 226.839C732.23 228.168 732.826 228.581 738.511 229.314C744.15 230.048 746.81 231.103 746.81 235.046C746.764 239.08 743.463 241.373 737.64 241.373V241.373Z" fill="#6A737D" />
      </g>
      <path d="M701.673 276.818H698.956V290.17H698.787L689.537 276.818H686.998V295H689.741V281.665H689.909L699.151 295H701.673V276.818ZM711.205 295.275C715.049 295.275 717.562 292.461 717.562 288.244C717.562 284 715.049 281.186 711.205 281.186C707.361 281.186 704.849 284 704.849 288.244C704.849 292.461 707.361 295.275 711.205 295.275ZM711.214 293.047C708.702 293.047 707.53 290.854 707.53 288.235C707.53 285.625 708.702 283.406 711.214 283.406C713.709 283.406 714.881 285.625 714.881 288.235C714.881 290.854 713.709 293.047 711.214 293.047ZM725.629 295.266C728.115 295.266 729.092 293.748 729.571 292.878H729.793V295H732.385V276.818H729.731V283.574H729.571C729.092 282.731 728.186 281.186 725.647 281.186C722.354 281.186 719.93 283.787 719.93 288.208C719.93 292.621 722.318 295.266 725.629 295.266ZM726.215 293.002C723.845 293.002 722.611 290.916 722.611 288.182C722.611 285.474 723.818 283.441 726.215 283.441C728.532 283.441 729.775 285.332 729.775 288.182C729.775 291.049 728.506 293.002 726.215 293.002ZM742.051 295.275C745.025 295.275 747.129 293.81 747.733 291.591L745.221 291.138C744.741 292.425 743.587 293.082 742.078 293.082C739.805 293.082 738.278 291.609 738.207 288.981H747.902V288.04C747.902 283.113 744.954 281.186 741.865 281.186C738.065 281.186 735.562 284.08 735.562 288.271C735.562 292.505 738.03 295.275 742.051 295.275ZM738.216 286.992C738.323 285.057 739.725 283.379 741.883 283.379C743.942 283.379 745.292 284.906 745.301 286.992H738.216ZM758.127 276.818V289.709C758.118 291.804 757.141 292.923 755.401 292.923C753.794 292.923 752.676 291.964 752.667 290.455H749.941C749.941 293.526 752.25 295.249 755.33 295.249C758.668 295.249 760.852 293.207 760.861 289.709V276.818H758.127ZM774.771 281.594H777.416C777.336 278.683 774.762 276.57 771.068 276.57C767.42 276.57 764.623 278.656 764.623 281.79C764.623 284.32 766.434 285.803 769.355 286.593L771.503 287.179C773.448 287.694 774.948 288.333 774.948 289.949C774.948 291.724 773.252 292.896 770.918 292.896C768.805 292.896 767.047 291.955 766.887 289.975H764.135C764.312 293.269 766.86 295.302 770.935 295.302C775.206 295.302 777.665 293.056 777.665 289.975C777.665 286.699 774.744 285.43 772.436 284.862L770.66 284.4C769.24 284.036 767.349 283.37 767.358 281.63C767.358 280.085 768.769 278.94 771.006 278.94C773.093 278.94 774.575 279.917 774.771 281.594Z" fill="#6A737D" />
      <g clip-path="url(#clip3)">
        <path d="M840.363 206.014C840.255 206.023 839.913 206.058 839.605 206.082C832.504 206.722 825.851 210.553 821.638 216.442C819.292 219.716 817.792 223.43 817.225 227.364C817.024 228.737 817 229.143 817 231.005C817 232.867 817.024 233.273 817.225 234.646C818.584 244.033 825.265 251.921 834.326 254.843C835.949 255.366 837.66 255.723 839.605 255.938C840.363 256.021 843.637 256.021 844.395 255.938C847.753 255.566 850.597 254.736 853.403 253.304C853.833 253.084 853.916 253.025 853.857 252.976C853.818 252.947 851.985 250.489 849.786 247.518L845.788 242.118L840.778 234.704C838.021 230.629 835.754 227.296 835.734 227.296C835.715 227.291 835.695 230.585 835.685 234.607C835.671 241.649 835.666 241.932 835.578 242.098C835.451 242.338 835.353 242.435 835.148 242.543C834.991 242.621 834.854 242.636 834.116 242.636H833.271L833.046 242.494C832.907 242.407 832.794 242.283 832.719 242.137L832.616 241.917L832.626 232.119L832.64 222.316L832.792 222.125C832.87 222.023 833.036 221.891 833.154 221.827C833.354 221.73 833.432 221.72 834.278 221.72C835.275 221.72 835.441 221.759 835.7 222.042C835.773 222.121 838.486 226.206 841.731 231.127C844.977 236.048 849.415 242.768 851.594 246.066L855.553 252.062L855.754 251.931C857.528 250.777 859.405 249.135 860.89 247.425C864.053 243.794 866.091 239.366 866.775 234.646C866.976 233.273 867 232.867 867 231.005C867 229.143 866.976 228.738 866.775 227.364C865.416 217.977 858.735 210.089 849.674 207.167C848.075 206.649 846.374 206.292 844.468 206.077C843.999 206.028 840.768 205.975 840.363 206.014V206.014ZM850.597 221.133C850.832 221.251 851.022 221.476 851.091 221.71C851.13 221.837 851.14 224.554 851.13 230.678L851.115 239.464L849.566 237.089L848.012 234.714V228.327C848.012 224.198 848.031 221.876 848.061 221.764C848.139 221.49 848.31 221.275 848.545 221.148C848.745 221.046 848.818 221.036 849.586 221.036C850.309 221.036 850.436 221.046 850.597 221.133Z" fill="#6A737D" />
      </g>
      <path d="M815.673 276.818H812.956V290.17H812.787L803.537 276.818H800.998V295H803.741V281.665H803.909L813.151 295H815.673V276.818ZM825.338 295.275C828.312 295.275 830.416 293.81 831.02 291.591L828.508 291.138C828.028 292.425 826.874 293.082 825.365 293.082C823.092 293.082 821.565 291.609 821.494 288.981H831.189V288.04C831.189 283.113 828.241 281.186 825.152 281.186C821.352 281.186 818.849 284.08 818.849 288.271C818.849 292.505 821.317 295.275 825.338 295.275ZM821.503 286.992C821.61 285.057 823.012 283.379 825.17 283.379C827.229 283.379 828.579 284.906 828.588 286.992H821.503ZM835.912 281.364H833L837.19 288.182L832.947 295H835.859L838.921 289.904L841.993 295H844.896L840.608 288.182L844.861 281.364H841.958L838.921 286.673L835.912 281.364ZM853.952 281.364H851.155V278.097H848.501V281.364H846.503V283.494H848.501V291.547C848.492 294.023 850.383 295.222 852.478 295.178C853.321 295.169 853.889 295.009 854.2 294.893L853.721 292.701C853.543 292.736 853.215 292.816 852.789 292.816C851.927 292.816 851.155 292.532 851.155 290.996V283.494H853.952V281.364ZM864.168 276.818V289.709C864.159 291.804 863.182 292.923 861.442 292.923C859.835 292.923 858.717 291.964 858.708 290.455H855.982C855.982 293.526 858.291 295.249 861.371 295.249C864.709 295.249 866.893 293.207 866.902 289.709V276.818H864.168ZM880.812 281.594H883.457C883.377 278.683 880.803 276.57 877.109 276.57C873.461 276.57 870.664 278.656 870.664 281.79C870.664 284.32 872.475 285.803 875.396 286.593L877.544 287.179C879.489 287.694 880.989 288.333 880.989 289.949C880.989 291.724 879.293 292.896 876.959 292.896C874.846 292.896 873.088 291.955 872.928 289.975H870.176C870.353 293.269 872.901 295.302 876.976 295.302C881.247 295.302 883.706 293.056 883.706 289.975C883.706 286.699 880.785 285.43 878.477 284.862L876.701 284.4C875.281 284.036 873.39 283.37 873.399 281.63C873.399 280.085 874.81 278.94 877.047 278.94C879.134 278.94 880.616 279.917 880.812 281.594Z" fill="#6A737D" />
    </g>
    <defs>
      <clipPath id="clip0">
        <rect width="1500" height="400" fill="white" />
      </clipPath>
      <clipPath id="clip1">
        <rect width="50" height="50" fill="white" transform="translate(576.5 206)" />
      </clipPath>
      <clipPath id="clip2">
        <rect width="44.3" height="50" fill="white" transform="translate(709.85 206)" />
      </clipPath>
      <clipPath id="clip3">
        <rect width="50" height="50" fill="white" transform="translate(817 206)" />
      </clipPath>
    </defs>
  </g>
  <g id="dark">
    <g clip-path="url(#clip0)">
      <rect width="1500" height="400" fill="#1B1F23" />
      <path d="M-62.445 355.737C-52.6005 366.8 -38.5096 371.751 -21.5625 371.751C-2.99692 371.751 19.0533 365.677 42.665 355.375C64.831 365.516 88.915 370.782 113.291 370.818C144.259 370.785 174.637 362.348 201.187 346.407C220.525 334.951 237.396 319.77 250.821 301.743C264.246 283.715 273.957 263.202 279.391 241.392C287.137 210.565 286.062 178.181 276.287 147.935C301.232 105.358 309.667 66.7607 289.083 43.587C276.497 29.42 258.997 22.8126 240.051 24.8691C224.227 26.5828 207.947 34.4089 191.533 47.5477C165.731 34.1804 136.931 27.6549 107.887 28.595C78.8429 29.5352 50.5255 37.9095 25.6418 52.9174C6.29752 64.3706 -10.5798 79.551 -24.011 97.5781C-37.4423 115.605 -47.16 136.12 -52.6005 157.932C-61.0798 191.531 -59.046 226.923 -46.7737 259.329C-67.0531 282.255 -85.8853 329.345 -62.445 355.737V355.737ZM-33.9587 330.45C-38.0907 325.804 -33.9016 310.075 -26.78 296.936C-18.3281 309.223 -8.31021 320.354 3.02025 330.05C-16.4784 335.8 -29.5791 335.439 -33.9587 330.45ZM242.469 232.1C238.239 249.049 230.685 264.99 220.244 278.997C209.804 293.004 196.685 304.797 181.65 313.693C161.002 326.096 137.378 332.67 113.291 332.716C105.255 332.716 97.4288 331.764 89.736 330.393C119.515 311.98 147.632 291.005 173.767 267.707C200.635 243.848 225.598 217.704 246.182 191.617C247.04 205.222 245.788 218.878 242.469 232.1ZM244.202 62.6858C250.981 62.0574 256.236 63.9045 260.597 68.8363C264.996 73.8061 263.815 86.8497 255.798 105.568C247.187 92.4613 236.828 80.5905 225.008 70.2834C233.215 65.2945 239.784 63.1809 244.202 62.6858V62.6858ZM-15.6596 167.225C-11.4267 150.271 -3.86915 134.327 6.57448 120.317C17.0181 106.307 30.1399 94.5106 45.1785 85.612C65.8199 73.2091 89.438 66.635 113.519 66.5894C160.609 66.5894 203.186 90.8294 227.445 131.426C229.921 135.577 232.111 139.805 234.129 144.127C215.639 171.566 187.801 204.299 148.48 239.221C109.197 274.124 73.4173 297.907 43.9789 313.027C25.6784 301.802 10.3701 286.311 -0.635755 267.879C-9.67513 252.93 -15.6577 236.336 -18.2366 219.058C-20.8156 201.78 -19.9396 184.162 -15.6596 167.225Z" fill="#2F363D" />
      <path d="M390.844 143H397.764V132.389H403.581C411.107 132.389 415.486 127.899 415.486 121.363C415.486 114.859 411.187 110.273 403.756 110.273H390.844V143ZM397.764 126.844V115.93H402.43C406.425 115.93 408.359 118.103 408.359 121.363C408.359 124.607 406.425 126.844 402.462 126.844H397.764ZM430.643 143.479C436.715 143.479 440.806 140.523 441.765 135.969L435.469 135.553C434.782 137.423 433.024 138.398 430.755 138.398C427.351 138.398 425.194 136.145 425.194 132.485V132.469H441.909V130.599C441.909 122.258 436.859 118.135 430.371 118.135C423.148 118.135 418.466 123.265 418.466 130.839C418.466 138.621 423.084 143.479 430.643 143.479ZM425.194 128.25C425.338 125.454 427.463 123.217 430.483 123.217C433.439 123.217 435.485 125.326 435.501 128.25H425.194ZM455.396 143.4C459.359 143.4 461.421 141.114 462.363 139.069H462.651V143H469.363V110.273H462.571V122.577H462.363C461.453 120.58 459.487 118.135 455.38 118.135C449.995 118.135 445.441 122.322 445.441 130.759C445.441 138.973 449.803 143.4 455.396 143.4ZM457.553 137.982C454.214 137.982 452.392 135.01 452.392 130.727C452.392 126.477 454.182 123.552 457.553 123.552C460.861 123.552 462.715 126.349 462.715 130.727C462.715 135.106 460.829 137.982 457.553 137.982ZM474.96 143H481.767V129.113C481.767 126.093 483.973 124.016 486.977 124.016C487.92 124.016 489.214 124.175 489.853 124.383V118.343C489.246 118.199 488.399 118.103 487.712 118.103C484.963 118.103 482.71 119.701 481.815 122.737H481.56V118.455H474.96V143ZM503.32 143.479C510.767 143.479 515.401 138.382 515.401 130.823C515.401 123.217 510.767 118.135 503.32 118.135C495.874 118.135 491.24 123.217 491.24 130.823C491.24 138.382 495.874 143.479 503.32 143.479ZM503.352 138.206C499.917 138.206 498.159 135.058 498.159 130.775C498.159 126.493 499.917 123.328 503.352 123.328C506.724 123.328 508.482 126.493 508.482 130.775C508.482 135.058 506.724 138.206 503.352 138.206ZM530.371 143H537.29V129.481H551.337V143H558.24V110.273H551.337V123.776H537.29V110.273H530.371V143ZM575.003 143.479C581.076 143.479 585.167 140.523 586.125 135.969L579.829 135.553C579.142 137.423 577.384 138.398 575.115 138.398C571.711 138.398 569.554 136.145 569.554 132.485V132.469H586.269V130.599C586.269 122.258 581.22 118.135 574.732 118.135C567.509 118.135 562.826 123.265 562.826 130.839C562.826 138.621 567.445 143.479 575.003 143.479ZM569.554 128.25C569.698 125.454 571.823 123.217 574.843 123.217C577.8 123.217 579.845 125.326 579.861 128.25H569.554ZM597.519 128.81C597.535 125.646 599.421 123.792 602.169 123.792C604.902 123.792 606.548 125.582 606.532 128.586V143H613.34V127.371C613.34 121.651 609.984 118.135 604.87 118.135C601.227 118.135 598.59 119.925 597.487 122.785H597.2V118.455H590.712V143H597.519V128.81ZM618.705 143H625.512V129.113C625.512 126.093 627.718 124.016 630.722 124.016C631.665 124.016 632.959 124.175 633.598 124.383V118.343C632.991 118.199 632.144 118.103 631.457 118.103C628.708 118.103 626.455 119.701 625.56 122.737H625.305V118.455H618.705V143ZM637.118 143H643.926V118.455H637.118V143ZM640.538 115.29C642.567 115.29 644.229 113.74 644.229 111.839C644.229 109.953 642.567 108.403 640.538 108.403C638.524 108.403 636.862 109.953 636.862 111.839C636.862 113.74 638.524 115.29 640.538 115.29ZM672.406 152.205V118.455H665.694V122.577H665.391C664.48 120.58 662.514 118.135 658.407 118.135C653.022 118.135 648.468 122.322 648.468 130.759C648.468 138.973 652.83 143.4 658.423 143.4C662.387 143.4 664.448 141.114 665.391 139.069H665.599V152.205H672.406ZM665.742 130.727C665.742 135.106 663.857 137.982 660.581 137.982C657.241 137.982 655.419 135.01 655.419 130.727C655.419 126.477 657.209 123.552 660.581 123.552C663.889 123.552 665.742 126.349 665.742 130.727ZM693.596 132.549C693.612 135.841 691.358 137.567 688.914 137.567C686.341 137.567 684.679 135.761 684.663 132.869V118.455H677.855V134.083C677.871 139.82 681.227 143.32 686.165 143.32C689.856 143.32 692.509 141.418 693.612 138.542H693.867V143H700.403V118.455H693.596V132.549ZM717.035 143.479C723.107 143.479 727.198 140.523 728.157 135.969L721.861 135.553C721.173 137.423 719.416 138.398 717.146 138.398C713.743 138.398 711.585 136.145 711.585 132.485V132.469H728.301V130.599C728.301 122.258 723.251 118.135 716.763 118.135C709.54 118.135 704.858 123.265 704.858 130.839C704.858 138.621 709.476 143.479 717.035 143.479ZM711.585 128.25C711.729 125.454 713.854 123.217 716.875 123.217C719.831 123.217 721.877 125.326 721.892 128.25H711.585ZM743.286 143H764.236V137.295H750.205V110.273H743.286V143ZM779.876 143.479C785.949 143.479 790.04 140.523 790.998 135.969L784.702 135.553C784.015 137.423 782.257 138.398 779.988 138.398C776.584 138.398 774.427 136.145 774.427 132.485V132.469H791.142V130.599C791.142 122.258 786.093 118.135 779.605 118.135C772.382 118.135 767.699 123.265 767.699 130.839C767.699 138.621 772.318 143.479 779.876 143.479ZM774.427 128.25C774.571 125.454 776.696 123.217 779.717 123.217C782.673 123.217 784.718 125.326 784.734 128.25H774.427ZM795.585 143H802.392V128.266C802.392 125.55 804.118 123.744 806.387 123.744C808.625 123.744 810.127 125.278 810.127 127.691V143H816.726V128.011C816.726 125.47 818.181 123.744 820.658 123.744C822.831 123.744 824.461 125.102 824.461 127.835V143H831.252V126.493C831.252 121.171 828.088 118.135 823.518 118.135C819.922 118.135 817.126 119.973 816.119 122.785H815.864C815.081 119.941 812.572 118.135 809.2 118.135C805.892 118.135 803.383 119.893 802.36 122.785H802.073V118.455H795.585V143ZM847.816 143.479C853.888 143.479 857.979 140.523 858.938 135.969L852.642 135.553C851.955 137.423 850.197 138.398 847.928 138.398C844.524 138.398 842.367 136.145 842.367 132.485V132.469H859.082V130.599C859.082 122.258 854.032 118.135 847.544 118.135C840.321 118.135 835.639 123.265 835.639 130.839C835.639 138.621 840.257 143.479 847.816 143.479ZM842.367 128.25C842.51 125.454 844.636 123.217 847.656 123.217C850.612 123.217 852.658 125.326 852.674 128.25H842.367ZM883.947 125.454C883.34 120.931 879.696 118.135 873.496 118.135C867.216 118.135 863.077 121.043 863.093 125.773C863.077 129.449 865.394 131.83 870.188 132.789L874.439 133.636C876.58 134.067 877.555 134.85 877.587 136.081C877.555 137.535 875.973 138.574 873.592 138.574C871.163 138.574 869.549 137.535 869.133 135.537L862.438 135.889C863.077 140.587 867.072 143.479 873.576 143.479C879.936 143.479 884.49 140.235 884.506 135.393C884.49 131.846 882.173 129.721 877.411 128.746L872.968 127.851C870.683 127.355 869.836 126.572 869.852 125.39C869.836 123.92 871.498 122.961 873.608 122.961C875.973 122.961 877.379 124.255 877.715 125.837L883.947 125.454Z" fill="#6A737D" />
      <path d="M428 231V256H478V206H428V231Z" fill="#586069" />
      <path d="M439.057 231.166L439.041 233.214H445.549V251.706H450.152V233.214H456.66V231.206C456.66 230.094 456.636 229.166 456.605 229.142C456.581 229.11 452.621 229.094 447.819 229.102L439.081 229.126L439.057 231.166L439.057 231.166Z" fill="#1B1F23" />
      <path d="M468.345 229.068C469.615 229.386 470.583 229.949 471.472 230.87C471.932 231.362 472.615 232.259 472.67 232.473C472.686 232.536 470.512 233.997 469.194 234.814C469.147 234.846 468.956 234.639 468.742 234.322C468.099 233.386 467.424 232.981 466.393 232.909C464.877 232.806 463.901 233.6 463.909 234.925C463.909 235.314 463.964 235.544 464.123 235.862C464.456 236.552 465.075 236.965 467.02 237.806C470.599 239.346 472.131 240.362 473.083 241.806C474.147 243.417 474.385 245.989 473.662 247.901C472.869 249.981 470.901 251.394 468.131 251.862C467.274 252.012 465.242 251.989 464.321 251.822C462.313 251.465 460.409 250.473 459.234 249.171C458.774 248.663 457.877 247.338 457.932 247.243C457.956 247.211 458.162 247.084 458.393 246.949C458.615 246.822 459.456 246.338 460.25 245.878L461.686 245.044L461.988 245.489C462.409 246.131 463.329 247.012 463.885 247.306C465.48 248.147 467.67 248.028 468.75 247.06C469.21 246.639 469.401 246.203 469.401 245.56C469.401 244.981 469.329 244.727 469.028 244.29C468.639 243.735 467.845 243.266 465.591 242.29C463.012 241.179 461.901 240.489 460.885 239.393C460.297 238.759 459.742 237.743 459.512 236.893C459.321 236.187 459.273 234.417 459.424 233.703C459.956 231.211 461.837 229.473 464.551 228.957C465.432 228.79 467.48 228.854 468.345 229.068V229.068Z" fill="#1B1F23" />
      <path d="M389.101 279.18H394.765V295H397.499V279.18H403.172V276.818H389.101V279.18ZM406.184 300.114C408.377 300.114 409.762 298.968 410.552 296.82L416.189 281.39L413.322 281.364L409.868 291.946H409.726L406.273 281.364H403.432L408.421 295.178L408.093 296.083C407.418 297.894 406.468 298.045 405.012 297.646L404.373 299.821C404.693 299.963 405.385 300.114 406.184 300.114ZM418.691 300.114H421.345V292.878H421.505C421.984 293.748 422.961 295.266 425.447 295.266C428.749 295.266 431.146 292.621 431.146 288.208C431.146 283.787 428.714 281.186 425.42 281.186C422.89 281.186 421.975 282.731 421.505 283.574H421.283V281.364H418.691V300.114ZM421.292 288.182C421.292 285.332 422.535 283.441 424.852 283.441C427.258 283.441 428.465 285.474 428.465 288.182C428.465 290.916 427.222 293.002 424.852 293.002C422.57 293.002 421.292 291.049 421.292 288.182ZM439.998 295.275C442.972 295.275 445.076 293.81 445.679 291.591L443.167 291.138C442.688 292.425 441.533 293.082 440.024 293.082C437.751 293.082 436.224 291.609 436.153 288.981H445.848V288.04C445.848 283.113 442.901 281.186 439.811 281.186C436.011 281.186 433.508 284.08 433.508 288.271C433.508 292.505 435.976 295.275 439.998 295.275ZM436.162 286.992C436.269 285.057 437.672 283.379 439.829 283.379C441.888 283.379 443.238 284.906 443.247 286.992H436.162ZM458.923 281.594H461.568C461.489 278.683 458.914 276.57 455.221 276.57C451.572 276.57 448.775 278.656 448.775 281.79C448.775 284.32 450.587 285.803 453.507 286.593L455.656 287.179C457.6 287.694 459.1 288.333 459.1 289.949C459.1 291.724 457.405 292.896 455.07 292.896C452.957 292.896 451.199 291.955 451.039 289.975H448.287C448.465 293.269 451.013 295.302 455.088 295.302C459.358 295.302 461.817 293.056 461.817 289.975C461.817 286.699 458.896 285.43 456.588 284.862L454.812 284.4C453.392 284.036 451.501 283.37 451.51 281.63C451.51 280.085 452.921 278.94 455.159 278.94C457.245 278.94 458.728 279.917 458.923 281.594ZM470.626 295.275C473.849 295.275 475.935 293.34 476.228 290.685H473.645C473.307 292.159 472.162 293.029 470.644 293.029C468.398 293.029 466.951 291.156 466.951 288.182C466.951 285.261 468.424 283.423 470.644 283.423C472.331 283.423 473.36 284.489 473.645 285.767H476.228C475.944 283.015 473.698 281.186 470.599 281.186C466.755 281.186 464.27 284.08 464.27 288.244C464.27 292.354 466.667 295.275 470.626 295.275ZM479.067 295H481.721V286.673C481.721 284.888 483.097 283.601 484.979 283.601C485.53 283.601 486.151 283.699 486.364 283.761V281.222C486.098 281.186 485.574 281.159 485.237 281.159C483.639 281.159 482.272 282.065 481.774 283.53H481.632V281.364H479.067V295ZM488.661 295H491.316V281.364H488.661V295ZM490.002 279.26C490.916 279.26 491.68 278.549 491.68 277.679C491.68 276.809 490.916 276.09 490.002 276.09C489.079 276.09 488.324 276.809 488.324 277.679C488.324 278.549 489.079 279.26 490.002 279.26ZM494.887 300.114H497.541V292.878H497.701C498.181 293.748 499.157 295.266 501.643 295.266C504.946 295.266 507.343 292.621 507.343 288.208C507.343 283.787 504.91 281.186 501.616 281.186C499.086 281.186 498.172 282.731 497.701 283.574H497.479V281.364H494.887V300.114ZM497.488 288.182C497.488 285.332 498.731 283.441 501.048 283.441C503.454 283.441 504.661 285.474 504.661 288.182C504.661 290.916 503.419 293.002 501.048 293.002C498.767 293.002 497.488 291.049 497.488 288.182ZM516.682 281.364H513.886V278.097H511.231V281.364H509.234V283.494H511.231V291.547C511.222 294.023 513.113 295.222 515.208 295.178C516.052 295.169 516.62 295.009 516.931 294.893L516.451 292.701C516.274 292.736 515.945 292.816 515.519 292.816C514.658 292.816 513.886 292.532 513.886 290.996V283.494H516.682V281.364Z" fill="#586069" />
      <g clip-path="url(#clip1)">
        <path d="M576.5 206H626.5V256H576.5V206Z" fill="#586069" />
        <path d="M589.647 247.784L593.473 245.468C594.211 246.777 594.883 247.884 596.494 247.884C598.038 247.884 599.011 247.28 599.011 244.931V228.955H603.71V244.997C603.71 249.864 600.857 252.079 596.695 252.079C592.936 252.079 590.754 250.133 589.647 247.783" fill="#1B1F23" />
        <path d="M606.262 247.28L610.088 245.065C611.095 246.71 612.404 247.918 614.72 247.918C616.667 247.918 617.908 246.945 617.908 245.602C617.908 243.991 616.633 243.42 614.485 242.481L613.31 241.977C609.92 240.534 607.671 238.722 607.671 234.896C607.671 231.371 610.356 228.686 614.552 228.686C617.539 228.686 619.687 229.727 621.231 232.445L617.572 234.795C616.767 233.352 615.894 232.781 614.552 232.781C613.176 232.781 612.303 233.654 612.303 234.795C612.303 236.205 613.176 236.775 615.189 237.648L616.364 238.151C620.358 239.863 622.607 241.608 622.607 245.535C622.607 249.764 619.284 252.08 614.82 252.08C610.457 252.08 607.638 249.999 606.262 247.28" fill="#1B1F23" />
      </g>
      <path d="M547.393 276.818V289.709C547.384 291.804 546.407 292.923 544.667 292.923C543.061 292.923 541.942 291.964 541.933 290.455H539.208C539.208 293.526 541.516 295.249 544.596 295.249C547.934 295.249 550.118 293.207 550.127 289.709V276.818H547.393ZM557.875 295.302C560.13 295.302 561.4 294.157 561.906 293.136H562.012V295H564.605V285.945C564.605 281.976 561.48 281.186 559.314 281.186C556.846 281.186 554.573 282.18 553.685 284.666L556.18 285.234C556.57 284.267 557.565 283.335 559.349 283.335C561.063 283.335 561.941 284.231 561.941 285.776V285.838C561.941 286.806 560.947 286.788 558.497 287.072C555.913 287.374 553.268 288.049 553.268 291.147C553.268 293.828 555.283 295.302 557.875 295.302ZM558.452 293.171C556.952 293.171 555.869 292.496 555.869 291.183C555.869 289.762 557.13 289.256 558.666 289.052C559.527 288.936 561.569 288.706 561.95 288.324V290.082C561.95 291.697 560.663 293.171 558.452 293.171ZM579.318 281.364H576.468L573.023 291.857H572.881L569.428 281.364H566.578L571.532 295H574.373L579.318 281.364ZM585.366 295.302C587.621 295.302 588.89 294.157 589.396 293.136H589.503V295H592.095V285.945C592.095 281.976 588.97 281.186 586.804 281.186C584.336 281.186 582.063 282.18 581.175 284.666L583.67 285.234C584.061 284.267 585.055 283.335 586.839 283.335C588.553 283.335 589.432 284.231 589.432 285.776V285.838C589.432 286.806 588.437 286.788 585.987 287.072C583.404 287.374 580.758 288.049 580.758 291.147C580.758 293.828 582.773 295.302 585.366 295.302ZM585.943 293.171C584.442 293.171 583.359 292.496 583.359 291.183C583.359 289.762 584.62 289.256 586.156 289.052C587.017 288.936 589.059 288.706 589.441 288.324V290.082C589.441 291.697 588.153 293.171 585.943 293.171ZM605.76 281.594H608.406C608.326 278.683 605.751 276.57 602.058 276.57C598.409 276.57 595.613 278.656 595.613 281.79C595.613 284.32 597.424 285.803 600.345 286.593L602.493 287.179C604.437 287.694 605.938 288.333 605.938 289.949C605.938 291.724 604.242 292.896 601.907 292.896C599.794 292.896 598.037 291.955 597.877 289.975H595.125C595.302 293.269 597.85 295.302 601.925 295.302C606.195 295.302 608.654 293.056 608.654 289.975C608.654 286.699 605.734 285.43 603.425 284.862L601.65 284.4C600.229 284.036 598.338 283.37 598.347 281.63C598.347 280.085 599.759 278.94 601.996 278.94C604.082 278.94 605.565 279.917 605.76 281.594ZM617.463 295.275C620.686 295.275 622.772 293.34 623.065 290.685H620.482C620.145 292.159 618.999 293.029 617.481 293.029C615.235 293.029 613.788 291.156 613.788 288.182C613.788 285.261 615.262 283.423 617.481 283.423C619.168 283.423 620.198 284.489 620.482 285.767H623.065C622.781 283.015 620.535 281.186 617.437 281.186C613.593 281.186 611.107 284.08 611.107 288.244C611.107 292.354 613.504 295.275 617.463 295.275ZM625.904 295H628.559V286.673C628.559 284.888 629.935 283.601 631.817 283.601C632.367 283.601 632.989 283.699 633.202 283.761V281.222C632.935 281.186 632.412 281.159 632.074 281.159C630.476 281.159 629.109 282.065 628.612 283.53H628.47V281.364H625.904V295ZM635.499 295H638.153V281.364H635.499V295ZM636.839 279.26C637.754 279.26 638.517 278.549 638.517 277.679C638.517 276.809 637.754 276.09 636.839 276.09C635.916 276.09 635.161 276.809 635.161 277.679C635.161 278.549 635.916 279.26 636.839 279.26ZM641.724 300.114H644.379V292.878H644.539C645.018 293.748 645.995 295.266 648.48 295.266C651.783 295.266 654.18 292.621 654.18 288.208C654.18 283.787 651.747 281.186 648.454 281.186C645.924 281.186 645.009 282.731 644.539 283.574H644.317V281.364H641.724V300.114ZM644.326 288.182C644.326 285.332 645.568 283.441 647.886 283.441C650.292 283.441 651.499 285.474 651.499 288.182C651.499 290.916 650.256 293.002 647.886 293.002C645.604 293.002 644.326 291.049 644.326 288.182ZM663.519 281.364H660.723V278.097H658.068V281.364H656.071V283.494H658.068V291.547C658.06 294.023 659.951 295.222 662.046 295.178C662.889 295.169 663.457 295.009 663.768 294.893L663.289 292.701C663.111 292.736 662.783 292.816 662.356 292.816C661.495 292.816 660.723 292.532 660.723 290.996V283.494H663.519V281.364Z" fill="#586069" />
      <g clip-path="url(#clip2)">
        <path d="M732 255.907C731.312 255.907 730.67 255.724 730.074 255.403L723.976 251.781C723.059 251.277 723.518 251.093 723.793 251.001C725.031 250.589 725.26 250.497 726.544 249.763C726.682 249.672 726.865 249.718 727.002 249.809L731.679 252.606C731.863 252.698 732.092 252.698 732.229 252.606L750.523 242.015C750.707 241.923 750.799 241.74 750.799 241.511V220.374C750.799 220.144 750.707 219.961 750.523 219.869L732.229 209.324C732.046 209.232 731.817 209.232 731.679 209.324L713.385 219.87C713.202 219.961 713.11 220.191 713.11 220.374V241.511C713.11 241.694 713.202 241.923 713.385 242.015L718.383 244.903C721.088 246.279 722.784 244.674 722.784 243.069V222.208C722.784 221.933 723.014 221.657 723.334 221.657H725.673C725.948 221.657 726.223 221.887 726.223 222.208V243.069C726.223 246.691 724.251 248.8 720.813 248.8C719.758 248.8 718.933 248.8 716.595 247.654L711.78 244.903C710.588 244.215 709.855 242.932 709.855 241.556V220.42C709.855 219.044 710.588 217.761 711.78 217.073L730.074 206.482C731.221 205.84 732.779 205.84 733.926 206.482L752.22 217.073C753.412 217.76 754.145 219.044 754.145 220.42V241.556C754.145 242.932 753.412 244.216 752.22 244.903L733.926 255.495C733.33 255.77 732.642 255.907 732 255.907V255.907ZM737.64 241.373C729.616 241.373 727.965 237.705 727.965 234.587C727.965 234.312 728.195 234.037 728.515 234.037H730.9C731.175 234.037 731.404 234.22 731.404 234.496C731.771 236.925 732.825 238.118 737.685 238.118C741.537 238.118 743.187 237.247 743.187 235.183C743.187 233.991 742.729 233.12 736.723 232.524C731.725 232.02 728.607 230.919 728.607 226.93C728.607 223.216 731.725 221.016 736.952 221.016C742.82 221.016 745.709 223.033 746.076 227.435C746.076 227.572 746.03 227.71 745.938 227.847C745.847 227.939 745.709 228.031 745.572 228.031H743.187C742.958 228.031 742.729 227.847 742.683 227.618C742.133 225.096 740.711 224.271 736.952 224.271C732.734 224.271 732.229 225.738 732.229 226.839C732.229 228.168 732.825 228.581 738.511 229.314C744.15 230.048 746.809 231.103 746.809 235.046C746.764 239.08 743.463 241.373 737.64 241.373V241.373Z" fill="#586069" />
      </g>
      <path d="M701.673 276.818H698.956V290.17H698.787L689.537 276.818H686.998V295H689.741V281.665H689.909L699.151 295H701.673V276.818ZM711.205 295.275C715.049 295.275 717.562 292.461 717.562 288.244C717.562 284 715.049 281.186 711.205 281.186C707.361 281.186 704.849 284 704.849 288.244C704.849 292.461 707.361 295.275 711.205 295.275ZM711.214 293.047C708.702 293.047 707.53 290.854 707.53 288.235C707.53 285.625 708.702 283.406 711.214 283.406C713.709 283.406 714.881 285.625 714.881 288.235C714.881 290.854 713.709 293.047 711.214 293.047ZM725.629 295.266C728.115 295.266 729.092 293.748 729.571 292.878H729.793V295H732.385V276.818H729.731V283.574H729.571C729.092 282.731 728.186 281.186 725.647 281.186C722.354 281.186 719.93 283.787 719.93 288.208C719.93 292.621 722.318 295.266 725.629 295.266ZM726.215 293.002C723.845 293.002 722.611 290.916 722.611 288.182C722.611 285.474 723.818 283.441 726.215 283.441C728.532 283.441 729.775 285.332 729.775 288.182C729.775 291.049 728.506 293.002 726.215 293.002ZM742.051 295.275C745.025 295.275 747.129 293.81 747.733 291.591L745.221 291.138C744.741 292.425 743.587 293.082 742.078 293.082C739.805 293.082 738.278 291.609 738.207 288.981H747.902V288.04C747.902 283.113 744.954 281.186 741.865 281.186C738.065 281.186 735.562 284.08 735.562 288.271C735.562 292.505 738.03 295.275 742.051 295.275ZM738.216 286.992C738.323 285.057 739.725 283.379 741.883 283.379C743.942 283.379 745.292 284.906 745.301 286.992H738.216ZM758.127 276.818V289.709C758.118 291.804 757.141 292.923 755.401 292.923C753.794 292.923 752.676 291.964 752.667 290.455H749.941C749.941 293.526 752.25 295.249 755.33 295.249C758.668 295.249 760.852 293.207 760.861 289.709V276.818H758.127ZM774.771 281.594H777.416C777.336 278.683 774.762 276.57 771.068 276.57C767.42 276.57 764.623 278.656 764.623 281.79C764.623 284.32 766.434 285.803 769.355 286.593L771.503 287.179C773.448 287.694 774.948 288.333 774.948 289.949C774.948 291.724 773.252 292.896 770.918 292.896C768.805 292.896 767.047 291.955 766.887 289.975H764.135C764.312 293.269 766.86 295.302 770.935 295.302C775.206 295.302 777.665 293.056 777.665 289.975C777.665 286.699 774.744 285.43 772.436 284.862L770.66 284.4C769.24 284.036 767.349 283.37 767.358 281.63C767.358 280.085 768.769 278.94 771.006 278.94C773.093 278.94 774.575 279.917 774.771 281.594Z" fill="#586069" />
      <g clip-path="url(#clip3)">
        <path d="M840.363 206.014C840.255 206.023 839.913 206.058 839.605 206.082C832.504 206.722 825.851 210.553 821.638 216.442C819.292 219.716 817.792 223.43 817.225 227.364C817.024 228.737 817 229.143 817 231.005C817 232.867 817.024 233.273 817.225 234.646C818.584 244.033 825.265 251.921 834.326 254.843C835.949 255.366 837.66 255.723 839.605 255.938C840.363 256.021 843.637 256.021 844.395 255.938C847.753 255.566 850.597 254.736 853.403 253.304C853.833 253.084 853.916 253.025 853.857 252.976C853.818 252.947 851.985 250.489 849.786 247.518L845.788 242.118L840.778 234.704C838.021 230.629 835.754 227.296 835.734 227.296C835.715 227.291 835.695 230.585 835.685 234.607C835.671 241.649 835.666 241.932 835.578 242.098C835.451 242.338 835.353 242.435 835.148 242.543C834.991 242.621 834.854 242.636 834.116 242.636H833.271L833.046 242.494C832.907 242.407 832.794 242.283 832.719 242.137L832.616 241.917L832.626 232.119L832.64 222.316L832.792 222.125C832.87 222.023 833.036 221.891 833.154 221.827C833.354 221.73 833.432 221.72 834.278 221.72C835.275 221.72 835.441 221.759 835.7 222.042C835.773 222.121 838.486 226.206 841.731 231.127C844.977 236.048 849.415 242.768 851.594 246.066L855.553 252.062L855.754 251.931C857.528 250.777 859.405 249.135 860.89 247.425C864.053 243.794 866.091 239.366 866.775 234.646C866.976 233.273 867 232.867 867 231.005C867 229.143 866.976 228.738 866.775 227.364C865.416 217.977 858.735 210.089 849.674 207.167C848.075 206.649 846.374 206.292 844.468 206.077C843.999 206.028 840.768 205.975 840.363 206.014V206.014ZM850.597 221.133C850.832 221.251 851.022 221.476 851.091 221.71C851.13 221.837 851.14 224.554 851.13 230.678L851.115 239.464L849.566 237.089L848.012 234.714V228.327C848.012 224.198 848.031 221.876 848.061 221.764C848.139 221.49 848.31 221.275 848.545 221.148C848.745 221.046 848.818 221.036 849.586 221.036C850.309 221.036 850.436 221.046 850.597 221.133Z" fill="#586069" />
      </g>
      <path d="M815.673 276.818H812.956V290.17H812.787L803.537 276.818H800.998V295H803.741V281.665H803.909L813.151 295H815.673V276.818ZM825.338 295.275C828.312 295.275 830.416 293.81 831.02 291.591L828.508 291.138C828.028 292.425 826.874 293.082 825.365 293.082C823.092 293.082 821.565 291.609 821.494 288.981H831.189V288.04C831.189 283.113 828.241 281.186 825.152 281.186C821.352 281.186 818.849 284.08 818.849 288.271C818.849 292.505 821.317 295.275 825.338 295.275ZM821.503 286.992C821.61 285.057 823.012 283.379 825.17 283.379C827.229 283.379 828.579 284.906 828.588 286.992H821.503ZM835.912 281.364H833L837.19 288.182L832.947 295H835.859L838.921 289.904L841.993 295H844.896L840.608 288.182L844.861 281.364H841.958L838.921 286.673L835.912 281.364ZM853.952 281.364H851.155V278.097H848.501V281.364H846.503V283.494H848.501V291.547C848.492 294.023 850.383 295.222 852.478 295.178C853.321 295.169 853.889 295.009 854.2 294.893L853.721 292.701C853.543 292.736 853.215 292.816 852.789 292.816C851.927 292.816 851.155 292.532 851.155 290.996V283.494H853.952V281.364ZM864.168 276.818V289.709C864.159 291.804 863.182 292.923 861.442 292.923C859.835 292.923 858.717 291.964 858.708 290.455H855.982C855.982 293.526 858.291 295.249 861.371 295.249C864.709 295.249 866.893 293.207 866.902 289.709V276.818H864.168ZM880.812 281.594H883.457C883.377 278.683 880.803 276.57 877.109 276.57C873.461 276.57 870.664 278.656 870.664 281.79C870.664 284.32 872.475 285.803 875.396 286.593L877.544 287.179C879.489 287.694 880.989 288.333 880.989 289.949C880.989 291.724 879.293 292.896 876.959 292.896C874.846 292.896 873.088 291.955 872.928 289.975H870.176C870.353 293.269 872.901 295.302 876.976 295.302C881.247 295.302 883.706 293.056 883.706 289.975C883.706 286.699 880.785 285.43 878.477 284.862L876.701 284.4C875.281 284.036 873.39 283.37 873.399 281.63C873.399 280.085 874.81 278.94 877.047 278.94C879.134 278.94 880.616 279.917 880.812 281.594Z" fill="#586069" />
    </g>
    <defs>
      <clipPath id="clip0">
        <rect width="1500" height="400" fill="white" />
      </clipPath>
      <clipPath id="clip1">
        <rect width="50" height="50" fill="white" transform="translate(576.5 206)" />
      </clipPath>
      <clipPath id="clip2">
        <rect width="44.3" height="50" fill="white" transform="translate(709.85 206)" />
      </clipPath>
      <clipPath id="clip3">
        <rect width="50" height="50" fill="white" transform="translate(817 206)" />
      </clipPath>
    </defs>
  </g>
</svg>
